PathFileType	4	(X/Y/Z)	./resultDataOpenSim/trcMotMarkerGrf/sub09/qtm-14-01.trc
DataRate	CameraRate	NumFrames	NumMarkers	Units	OrigDataRate	OrigDataStartFrame	OrigNumFrames
250.000000	250.000000	14	24	m	250.000000	317	507
Frame#	Time	L.Toe.Tip			R.Toe.Tip			L.Ankle.Lat			R.Ankle.Lat			L.Ankle.Med			R.Ankle.Med			L.Heel			R.Heel			L.Knee.Lat			R.Knee.Lat			L.Knee.Med			R.Knee.Med			L.Thigh.Upper			R.Thigh.Upper			L.ASIS			R.ASIS			V.Sacral			L.Acromium			R.Acromium			C7			L.Elbow			R.Elbow			L.Wrist.Lat			R.Wrist.Lat
		X1	Y1	Z1	X2	Y2	Z2	X3	Y3	Z3	X4	Y4	Z4	X5	Y5	Z5	X6	Y6	Z6	X7	Y7	Z7	X8	Y8	Z8	X9	Y9	Z9	X10	Y10	Z10	X11	Y11	Z11	X12	Y12	Z12	X13	Y13	Z13	X14	Y14	Z14	X15	Y15	Z15	X16	Y16	Z16	X17	Y17	Z17	X18	Y18	Z18	X19	Y19	Z19	X20	Y20	Z20	X21	Y21	Z21	X22	Y22	Z22	X23	Y23	Z23	X24	Y24	Z24

317	1.264	0.13474383	-0.013435797	-0.014007619	0.9739306	0.039373622	-0.0064024691	0.10510288	0.13927984	-0.09328385	0.82399226	0.052498401	0.032870917	0.13964483	0.13135977	-0.0011939537	0.8354	0.096041236	-0.057855206	0.04953711	0.17973968	-0.043492126	0.75619294	0.031936903	-0.015211206	0.43049971	0.40264196	-0.14811795	0.85677999	0.50187197	0.11375702	0.42979909	0.393612	-0.016247647	0.83747945	0.49921239	-0.0099001293	0.54046943	0.79813938	-0.15903816	0.62134005	0.82692493	0.2053129	0.65478052	0.86919506	-0.12261433	0.68808545	0.90276025	0.11522366	0.51091698	0.95272466	0.013504711	0.70913647	1.3370537	-0.16255962	0.68141553	1.349775	0.16504418	0.62854816	1.3965918	-0.0056960912	0.62372521	0.96300356	-0.24222145	0.47027177	1.070016	0.24363749	0.90147715	0.9655312	-0.23396663	0.48963779	0.81445777	0.33910192
318	1.268	0.13666803	-0.010621287	-0.015664918	0.97408904	0.039233669	-0.0065287298	0.1116081	0.14418012	-0.093618713	0.82401307	0.05246905	0.032690541	0.14633374	0.13490116	-0.001646626	0.83587313	0.095771719	-0.058121436	0.057360622	0.18598185	-0.043252394	0.7562611	0.032030446	-0.015413559	0.44106786	0.40128851	-0.14902192	0.86122214	0.50067101	0.11394338	0.44191246	0.39188704	-0.017276383	0.84287453	0.4981747	-0.010026698	0.54750519	0.79734439	-0.15910982	0.62695663	0.82747665	0.20536584	0.66119794	0.86907343	-0.12206995	0.69448547	0.90337562	0.11590305	0.51724118	0.95277371	0.013462496	0.71579349	1.33677	-0.16224183	0.68822472	1.349703	0.16515154	0.63521068	1.3967307	-0.0056226696	0.62817808	0.96344568	-0.24221137	0.4776964	1.0693274	0.24390251	0.90594977	0.96290331	-0.23405153	0.49791271	0.81374165	0.33909005
319	1.272	0.1387062	-0.0074184245	-0.017464014	0.97426215	0.039111805	-0.0065992581	0.11827351	0.14929636	-0.094002333	0.82418186	0.052396154	0.032568697	0.15317104	0.1386431	-0.0021619422	0.83643444	0.095571329	-0.058279603	0.065469112	0.19241963	-0.043058689	0.7563674	0.032157356	-0.015544586	0.45177037	0.4000751	-0.14986637	0.86563662	0.4995792	0.11414809	0.4545616	0.3901764	-0.018372827	0.84814598	0.49699964	-0.010151729	0.55453805	0.79656342	-0.15914278	0.63274646	0.82801864	0.20539353	0.66751591	0.86906361	-0.12158572	0.70084893	0.90399085	0.11656793	0.52343075	0.95300013	0.013565031	0.72233887	1.3365702	-0.16193961	0.69492059	1.3497344	0.16524756	0.64171188	1.3969784	-0.0055539378	0.6325852	0.96398417	-0.24217266	0.48509518	1.0687103	0.24419806	0.91034032	0.9602085	-0.23418384	0.50620865	0.81305935	0.33900918
320	1.276	0.14092498	-0.0037719228	-0.019330576	0.97441719	0.039009302	-0.006610303	0.12505452	0.15460485	-0.094459955	0.82444591	0.052284744	0.032503647	0.16015715	0.1425987	-0.0027403747	0.83701862	0.095444919	-0.058336043	0.073838646	0.19901314	-0.042906009	0.75647203	0.032297765	-0.015594319	0.46262094	0.3990527	-0.15073455	0.87002541	0.49859077	0.11437641	0.46761415	0.38851489	-0.019511672	0.85326192	0.49575949	-0.010248172	0.56154614	0.79582302	-0.15915769	0.63871405	0.82852353	0.20542996	0.67373243	0.86915224	-0.12115635	0.70697831	0.90449929	0.11711446	0.52954037	0.95340015	0.013747097	0.72876137	1.3364776	-0.16167087	0.70150296	1.3498711	0.16532973	0.64803614	1.3973174	-0.0054548469	0.63694847	0.96462808	-0.24210217	0.49247574	1.0681781	0.24453175	0.91464827	0.95747291	-0.23436248	0.5144871	0.81241363	0.33884984
321	1.28	0.14342335	0.00034144384	-0.021188429	0.97453001	0.038926504	-0.0066017307	0.13195896	0.16008262	-0.094995781	0.82472168	0.052159561	0.032482178	0.16730997	0.14677146	-0.003373479	0.83754028	0.095382941	-0.058319978	0.082432897	0.20572108	-0.042808384	0.75654206	0.032434755	-0.015575288	0.47357106	0.39823711	-0.15166581	0.87435167	0.49765913	0.1146039	0.48093378	0.38693747	-0.020666629	0.85818016	0.49452374	-0.010306641	0.5685097	0.79515787	-0.15919408	0.64483811	0.82895552	0.20547384	0.67985312	0.86932096	-0.12077408	0.71278262	0.90483717	0.11748418	0.53557326	0.95393813	0.013931754	0.73503065	1.3365156	-0.16145746	0.7079758	1.3501101	0.16539447	0.65427428	1.3977307	-0.0052841476	0.64126256	0.96537774	-0.24199408	0.49975656	1.0677385	0.24487368	0.91886717	0.95472286	-0.23455891	0.52277813	0.81181805	0.33862868
322	1.284	0.14629691	0.0049055775	-0.022992722	0.97458921	0.038858784	-0.0066122526	0.13906443	0.16571878	-0.09560277	0.82493263	0.052056598	0.03249436	0.17463217	0.15115939	-0.0040511045	0.83793543	0.095365049	-0.058262089	0.091205608	0.21250701	-0.042813972	0.75655781	0.032550892	-0.015511181	0.48454819	0.39759918	-0.15262922	0.87856562	0.49674308	0.1147834	0.49438442	0.38548094	-0.021807278	0.86286092	0.49335863	-0.010325815	0.57541663	0.79460093	-0.15927471	0.65107242	0.82929216	0.20551291	0.68588652	0.86955916	-0.12043384	0.7184085	0.90506522	0.11774374	0.54138704	0.95456402	0.014097031	0.74111737	1.336695	-0.16131845	0.71434564	1.3504451	0.16544012	0.66050016	1.3982091	-0.0050694653	0.64552169	0.96622302	-0.24184293	0.50679608	1.0673902	0.24516431	0.92298763	0.95197226	-0.23473841	0.53112963	0.8112897	0.33837197
323	1.288	0.14960925	0.0098829322	-0.024723593	0.97459246	0.038800741	-0.0066453445	0.14645504	0.17150071	-0.096279761	0.82503448	0.051996855	0.032534561	0.18209489	0.15576556	-0.0047601724	0.83818733	0.095365088	-0.05818386	0.10011032	0.2193463	-0.042991932	0.75651326	0.032629808	-0.015425292	0.49553916	0.39708845	-0.15353936	0.88265784	0.49584576	0.11488656	0.50783277	0.38418795	-0.022892395	0.86726533	0.492318	-0.01030533	0.58224808	0.79418517	-0.15938191	0.65736408	0.82954668	0.20555118	0.69183744	0.86987548	-0.12013693	0.72404767	0.9052924	0.11798679	0.54681386	0.95521461	0.014264742	0.7470186	1.33701	-0.16126642	0.72062048	1.3508725	0.16546493	0.6666975	1.398745	-0.0048851289	0.64972246	0.96715057	-0.24164391	0.51356379	1.0671303	0.24538618	0.92700415	0.94922506	-0.23489341	0.53961084	0.8108615	0.33812405
324	1.292	0.15340082	0.01524367	-0.026355267	0.97455031	0.038752266	-0.0066823232	0.15413345	0.17738631	-0.097030226	0.82503101	0.051973499	0.032596906	0.18965542	0.16060382	-0.0054868854	0.8383236	0.095366129	-0.058096064	0.10911363	0.22623295	-0.043407792	0.75642148	0.032671107	-0.015332499	0.50658958	0.39666255	-0.15430922	0.88668815	0.49501373	0.11493515	0.5211429	0.38311012	-0.023866287	0.87135731	0.49143404	-0.010240001	0.58897122	0.79394833	-0.15948002	0.66365155	0.82975931	0.20560337	0.6977103	0.87029673	-0.11988758	0.72975073	0.90558237	0.11823362	0.55191524	0.95582681	0.014444156	0.75275759	1.337448	-0.16130679	0.72681008	1.3513981	0.16546671	0.67280263	1.3993485	-0.0047664225	0.65386817	0.96815173	-0.24139763	0.52021122	1.0669663	0.24559843	0.9309136	0.94648965	-0.23504204	0.54832614	0.81058565	0.33795609
325	1.296	0.15770947	0.020974395	-0.027839439	0.97448893	0.038714671	-0.0067062771	0.16203561	0.18331664	-0.097856506	0.82497502	0.05196592	0.032671582	0.19729358	0.16568682	-0.0062324787	0.83840128	0.095368031	-0.058004809	0.11820586	0.23316911	-0.044099851	0.75631473	0.03269766	-0.015242877	0.51774918	0.39630765	-0.15491246	0.89071359	0.49428317	0.11496474	0.53415861	0.38229979	-0.024677131	0.8751244	0.49070587	-0.010119636	0.59555631	0.79392242	-0.15955362	0.669869	0.829973	0.20568085	0.70351468	0.87084944	-0.11968501	0.73547275	0.90595102	0.11845769	0.55701317	0.95639344	0.014628051	0.75836115	1.3380034	-0.16143343	0.73292114	1.3520301	0.16544659	0.67875839	1.4000603	-0.004683092	0.6579649	0.9692258	-0.24111371	0.5269067	1.0669104	0.24586695	0.93471099	0.94377941	-0.23520011	0.55732967	0.8104992	0.33791164
326	1.3	0.16256375	0.02705404	-0.029118322	0.97443747	0.038682546	-0.0067078699	0.17012851	0.18926083	-0.098767025	0.8249435	0.051958424	0.03274249	0.20503537	0.17101039	-0.0070237143	0.83848776	0.095376822	-0.057917665	0.12739778	0.2401436	-0.045071087	0.75622821	0.032740304	-0.015171518	0.52903834	0.39604187	-0.15539341	0.89469396	0.49362416	0.11497219	0.54668078	0.38177577	-0.025340946	0.8786002	0.49009529	-0.009940296	0.60199601	0.79411266	-0.159599	0.67596973	0.83022217	0.20579198	0.70926057	0.87154039	-0.11952327	0.74116808	0.90639163	0.11863774	0.56239217	0.95699457	0.014824535	0.7638398	1.3386772	-0.16162846	0.73894999	1.3527659	0.16540996	0.68455513	1.400902	-0.0045989705	0.66200743	0.97037544	-0.24080031	0.53368936	1.0669624	0.24620033	0.93838702	0.9410993	-0.23537046	0.56646419	0.81057213	0.33790428
327	1.304	0.16795796	0.033424264	-0.03015634	0.97441088	0.03864702	-0.0066880537	0.17843446	0.19522094	-0.099772225	0.82498893	0.051945981	0.032791168	0.21294799	0.17655756	-0.007903705	0.83863266	0.095393614	-0.057843372	0.13669946	0.24712835	-0.046302742	0.75617977	0.032816302	-0.015136648	0.54042699	0.39589813	-0.15581477	0.89850506	0.49295755	0.11491862	0.55847483	0.38146578	-0.026038382	0.88185619	0.48954496	-0.0097174792	0.6083069	0.79449518	-0.15958651	0.68193183	0.83053248	0.20593991	0.71494932	0.87235496	-0.11940118	0.74681966	0.90689424	0.11877123	0.56806662	0.9577386	0.01505556	0.76918957	1.3394684	-0.16187266	0.74488829	1.3535932	0.16536196	0.69025022	1.4018355	-0.0045183599	0.66597279	0.97159861	-0.24045165	0.54047977	1.0671003	0.24656135	0.9419311	0.93844239	-0.2355518	0.57540028	0.81071569	0.33774277
328	1.308	0.17384729	0.039997482	-0.03096183	0.97440787	0.038606307	-0.0066607557	0.1869792	0.20119826	-0.10087248	0.82510415	0.05193255	0.032808339	0.22109461	0.18231089	-0.0089009747	0.83884582	0.095417472	-0.057787128	0.14610271	0.25409587	-0.047773709	0.75616575	0.032924182	-0.015145085	0.55185566	0.39590544	-0.1562111	0.90205038	0.49223233	0.11478423	0.56937445	0.38119189	-0.027117078	0.88496968	0.4890119	-0.0094887213	0.61451623	0.79505666	-0.15946286	0.68773081	0.8309187	0.20610965	0.7205699	0.87326819	-0.1193284	0.75243261	0.90746611	0.11887101	0.57388448	0.95867424	0.015328265	0.77441151	1.3403707	-0.16215432	0.75073712	1.3545052	0.16530538	0.69591096	1.4028078	-0.0044643977	0.6698301	0.97288806	-0.24005411	0.54713815	1.0672913	0.24689758	0.94534179	0.93580356	-0.23573804	0.58394159	0.81086758	0.33731858
329	1.312	0.18016728	0.046695581	-0.031580497	0.97442177	0.038566882	-0.0066421408	0.19578559	0.2071853	-0.10206823	0.82523976	0.051927326	0.032801779	0.22945252	0.18824401	-0.0099790032	0.83910272	0.095450849	-0.05774728	0.15558871	0.26103177	-0.049464935	0.75617387	0.033055007	-0.015185582	0.56328597	0.39608011	-0.156578	0.90537037	0.49148052	0.11463317	0.57953022	0.38085783	-0.028715123	0.8880031	0.48848625	-0.0092920813	0.62064809	0.79583792	-0.15921393	0.69333605	0.83139184	0.20627395	0.72610556	0.87425671	-0.1193171	0.75801213	0.90813269	0.11895422	0.57971632	0.95977114	0.015627118	0.7795246	1.3413724	-0.16246345	0.75650767	1.355506	0.16524233	0.70154496	1.4038089	-0.004441588	0.67356645	0.97423998	-0.23960421	0.55355416	1.0675219	0.24716937	0.94862866	0.93319521	-0.23591393	0.5921917	0.81104636	0.33670268
330	1.316	0.1868511	0.053466292	-0.032075849	0.97444858	0.038533989	-0.0066358694	0.20488574	0.21317587	-0.1033643	0.82535363	0.051937396	0.032789517	0.23792053	0.19430644	-0.01105103	0.83937	0.095495654	-0.05771756	0.16514793	0.26792539	-0.051350282	0.75619586	0.033202628	-0.015239166	0.57472876	0.39641868	-0.15688007	0.90861506	0.49079208	0.11459046	0.58951728	0.38069648	-0.030300444	0.89099582	0.48798416	-0.0091265443	0.6267176	0.79689664	-0.158908	0.69874678	0.8319745	0.20641919	0.73155734	0.87532171	-0.11935868	0.76355262	0.90891449	0.11903077	0.58549582	0.9609683	0.015931289	0.78455537	1.3424602	-0.16278417	0.7622103	1.356603	0.16517282	0.70710597	1.4048715	-0.004431229	0.67721448	0.9756612	-0.23912226	0.55976086	1.06782	0.24738226	0.95179723	0.93064156	-0.23606694	0.6003971	0.81131588	0.33604754
